<svg xmlns="http://www.w3.org/2000/svg" viewBox="0 0 920 620" role="img" aria-labelledby="t d">
<title id="t">Smart hem för barnfamilj</title><desc id="d">En ljus vardagsrumsscen med familj och en smart hem-dashboard.</desc>
<defs>
  <linearGradient id="wall" x1="0" x2="1"><stop stop-color="#f7fbfb"/><stop offset="1" stop-color="#f3e6d8"/></linearGradient>
  <linearGradient id="screen" x1="0" y1="0" x2="1" y2="1"><stop stop-color="#ffffff"/><stop offset="1" stop-color="#eef8f6"/></linearGradient>
  <filter id="shadow" x="-20%" y="-20%" width="140%" height="150%"><feDropShadow dx="0" dy="20" stdDeviation="22" flood-color="#0b2545" flood-opacity=".16"/></filter>
</defs>
<rect width="920" height="620" rx="36" fill="url(#wall)"/>
<circle cx="760" cy="116" r="54" fill="#fff4df"/>
<path d="M708 86h104" stroke="#d7b98d" stroke-width="5" stroke-linecap="round"/>
<rect x="630" y="214" width="218" height="188" rx="30" fill="#d8bd9d"/>
<rect x="640" y="198" width="198" height="62" rx="31" fill="#f0d7b8"/>
<path d="M144 410c64-34 126-42 183-12 42 22 92 26 136 0 63-38 124-28 176 20v80H144z" fill="#e8d7c5"/>
<g transform="translate(166 156)">
  <circle cx="76" cy="82" r="46" fill="#d18b5c"/>
  <path d="M36 80c10-48 78-62 99-8-20-8-54-12-99 8z" fill="#4c2e24"/>
  <rect x="38" y="123" width="86" height="128" rx="42" fill="#1e6f79"/>
  <circle cx="214" cy="68" r="42" fill="#c88455"/>
  <path d="M176 64c12-46 74-48 84-2-26-12-54-10-84 2z" fill="#2e2a24"/>
  <rect x="176" y="108" width="78" height="139" rx="38" fill="#224d7a"/>
  <circle cx="145" cy="126" r="30" fill="#d99a65"/>
  <path d="M120 121c6-30 47-34 57-4-20-8-34-6-57 4z" fill="#6b3d2d"/>
  <rect x="119" y="155" width="54" height="82" rx="25" fill="#f3b64a"/>
</g>
<g filter="url(#shadow)" transform="translate(352 274)">
  <rect x="0" y="0" width="420" height="250" rx="34" fill="#10233a"/>
  <rect x="14" y="14" width="392" height="222" rx="24" fill="url(#screen)"/>
  <rect x="36" y="46" width="78" height="16" rx="8" fill="#173a5e"/>
  <rect x="36" y="74" width="86" height="10" rx="5" fill="#b9c7d3"/>
  <g transform="translate(150 42)">
    <rect width="92" height="70" rx="16" fill="#eaf7f1"/><circle cx="24" cy="26" r="13" fill="#10a37f"/><rect x="44" y="20" width="30" height="9" rx="4" fill="#0f2f4b"/><rect x="44" y="38" width="36" height="7" rx="3" fill="#94a9b8"/>
    <rect x="110" width="92" height="70" rx="16" fill="#fff5df"/><circle cx="134" cy="26" r="13" fill="#f7b731"/><rect x="154" y="20" width="30" height="9" rx="4" fill="#0f2f4b"/><rect x="154" y="38" width="36" height="7" rx="3" fill="#94a9b8"/>
    <rect y="88" width="92" height="70" rx="16" fill="#eef4ff"/><circle cx="24" cy="114" r="13" fill="#4a90e2"/><rect x="44" y="108" width="30" height="9" rx="4" fill="#0f2f4b"/><rect x="44" y="126" width="36" height="7" rx="3" fill="#94a9b8"/>
    <rect x="110" y="88" width="92" height="70" rx="16" fill="#f2f0ff"/><circle cx="134" cy="114" r="13" fill="#7b61ff"/><rect x="154" y="108" width="30" height="9" rx="4" fill="#0f2f4b"/><rect x="154" y="126" width="36" height="7" rx="3" fill="#94a9b8"/>
  </g>
  <g transform="translate(42 154)" fill="#7ed6c4"><rect width="12" height="40" rx="6"/><rect x="24" y="-18" width="12" height="58" rx="6"/><rect x="48" y="-4" width="12" height="44" rx="6"/><rect x="72" y="-30" width="12" height="70" rx="6"/></g>
</g>
<g transform="translate(740 322)"><rect x="0" y="40" width="96" height="118" rx="20" fill="#ffffff" opacity=".85"/><circle cx="48" cy="76" r="30" fill="#17243b"/><circle cx="48" cy="76" r="12" fill="#68d2bd"/><rect x="22" y="120" width="52" height="10" rx="5" fill="#d4dde5"/></g>
</svg>
