<svg xmlns="http://www.w3.org/2000/svg" viewBox="0 0 520 360"><rect width="520" height="360" rx="34" fill="#f5f1e8"/><rect x="58" y="256" width="404" height="22" rx="11" fill="#8b6b4a"/><rect x="98" y="106" width="86" height="150" rx="18" fill="#fffdf8" stroke="#24211c" stroke-width="5"/><circle cx="141" cy="164" r="24" fill="#dcead6" stroke="#24211c" stroke-width="5"/><rect x="226" y="70" width="116" height="186" rx="20" fill="#2f6f44" stroke="#24211c" stroke-width="5"/><rect x="250" y="100" width="68" height="12" rx="6" fill="#dcead6"/><rect x="250" y="132" width="52" height="12" rx="6" fill="#dcead6"/><rect x="250" y="164" width="78" height="12" rx="6" fill="#dcead6"/><circle cx="284" cy="216" r="18" fill="#f3c89a"/><rect x="374" y="128" width="72" height="128" rx="28" fill="#c9d8ef" stroke="#24211c" stroke-width="5"/><circle cx="410" cy="192" r="18" fill="#fffdf8" stroke="#24211c" stroke-width="5"/><path d="M410 108c0-38-24-54-54-30" stroke="#24211c" stroke-width="6" fill="none" stroke-linecap="round"/><path d="M132 84c24-44 74-42 92 0" stroke="#b65c2a" stroke-width="8" fill="none" stroke-linecap="round"/></svg>