<svg xmlns="http://www.w3.org/2000/svg" viewBox="0 0 520 360"><rect width="520" height="360" rx="34" fill="#2f6f44"/><g transform="rotate(-4 140 160)"><rect x="64" y="58" width="176" height="238" rx="22" fill="#fffdf8" stroke="#24211c" stroke-width="5"/><text x="92" y="112" font-family="Arial" font-size="28" font-weight="700" fill="#24211c">Morgon</text><circle cx="102" cy="154" r="10" fill="#f3c89a"/><rect x="124" y="145" width="78" height="14" rx="7" fill="#d8cec0"/><circle cx="102" cy="196" r="10" fill="#dcead6"/><rect x="124" y="187" width="94" height="14" rx="7" fill="#d8cec0"/><circle cx="102" cy="238" r="10" fill="#c9d8ef"/><rect x="124" y="229" width="66" height="14" rx="7" fill="#d8cec0"/></g><g transform="rotate(5 360 166)"><rect x="282" y="70" width="176" height="226" rx="22" fill="#f7efe3" stroke="#24211c" stroke-width="5"/><text x="310" y="124" font-family="Arial" font-size="28" font-weight="700" fill="#24211c">Kväll</text><path d="M324 164h88M324 204h72M324 244h96" stroke="#786e61" stroke-width="14" stroke-linecap="round"/><path d="M304 160l9 9 18-22M304 200l9 9 18-22M304 240l9 9 18-22" stroke="#2f6f44" stroke-width="6" fill="none" stroke-linecap="round" stroke-linejoin="round"/></g></svg>